<svg xmlns="http://www.w3.org/2000/svg" width="1150" height="23"><rect width="100%" height="100%" fill="none"/><path fill="#E6E7E8" d="M0 0c9.017 0 13.728 4.589 17.514 8.276C20.926 11.599 23.391 14 28.748 14c5.358 0 7.823-2.401 11.235-5.724C43.769 4.588 48.48 0 57.497 0s13.728 4.589 17.514 8.276C78.423 11.599 80.888 14 86.245 14s7.822-2.401 11.234-5.724C101.265 4.588 105.976 0 114.993 0s13.729 4.589 17.515 8.276C135.92 11.599 138.385 14 143.743 14c5.357 0 7.822-2.401 11.234-5.724C158.764 4.589 163.475 0 172.491 0s13.728 4.589 17.514 8.276c3.412 3.323 5.877 5.724 11.234 5.724s7.822-2.401 11.234-5.724C216.26 4.589 220.972 0 229.988 0s13.729 4.589 17.515 8.276C250.915 11.599 253.38 14 258.737 14s7.822-2.401 11.234-5.724C273.758 4.589 278.47 0 287.486 0s13.729 4.589 17.515 8.276c3.412 3.323 5.877 5.724 11.235 5.724 5.355 0 7.82-2.4 11.231-5.723C331.253 4.589 335.964 0 344.979 0c9.017 0 13.729 4.589 17.515 8.276 3.412 3.323 5.877 5.724 11.235 5.724 5.356 0 7.821-2.401 11.232-5.723C388.747 4.589 393.458 0 402.474 0c9.017 0 13.729 4.589 17.514 8.277 3.41 3.322 5.875 5.723 11.233 5.723s7.821-2.401 11.233-5.723C446.239 4.589 450.951 0 459.968 0c9.016 0 13.727 4.589 17.512 8.276 3.411 3.323 5.875 5.724 11.233 5.724s7.822-2.401 11.234-5.724C503.733 4.589 508.444 0 517.461 0s13.729 4.589 17.515 8.276c3.412 3.323 5.877 5.724 11.236 5.724 5.357 0 7.822-2.401 11.234-5.724C561.232 4.589 565.943 0 574.96 0c9.016 0 13.728 4.589 17.514 8.276C595.885 11.599 598.35 14 603.708 14s7.823-2.401 11.234-5.724C618.728 4.589 623.439 0 632.456 0s13.729 4.589 17.514 8.276c3.411 3.323 5.877 5.724 11.234 5.724 5.358 0 7.823-2.401 11.235-5.724C676.226 4.589 680.938 0 689.954 0c9.017 0 13.729 4.589 17.516 8.276 3.412 3.323 5.877 5.724 11.237 5.724 5.358 0 7.823-2.401 11.235-5.724C733.728 4.589 738.44 0 747.457 0s13.729 4.589 17.515 8.276c3.412 3.323 5.877 5.724 11.236 5.724 5.358 0 7.823-2.401 11.235-5.724C791.229 4.589 795.941 0 804.958 0s13.729 4.589 17.515 8.276c3.413 3.323 5.878 5.724 11.236 5.724s7.824-2.401 11.236-5.724C848.731 4.589 853.444 0 862.461 0c9.018 0 13.729 4.589 17.516 8.276 3.412 3.323 5.878 5.724 11.237 5.724 5.357 0 7.822-2.401 11.234-5.724C906.233 4.589 910.945 0 919.961 0c9.017 0 13.729 4.589 17.515 8.276 3.412 3.323 5.877 5.724 11.235 5.724s7.824-2.401 11.236-5.724C963.733 4.589 968.445 0 977.462 0c9.018 0 13.73 4.589 17.517 8.276 3.412 3.323 5.877 5.724 11.237 5.724s7.825-2.401 11.238-5.724c3.787-3.687 8.5-8.276 17.517-8.276 9.018 0 13.73 4.589 17.517 8.276 3.413 3.323 5.879 5.724 11.239 5.724s7.826-2.401 11.239-5.724c3.785-3.687 8.498-8.276 17.516-8.276 9.018 0 13.731 4.588 17.518 8.276 3.414 3.323 5.88 5.724 11.241 5.724s7.827-2.401 11.24-5.724C1136.268 4.589 1140.981 0 1150 0v9c-5.361 0-7.827 2.401-11.241 5.724-3.787 3.688-8.5 8.276-17.518 8.276s-13.731-4.588-17.519-8.276c-3.413-3.323-5.879-5.724-11.24-5.724-5.36 0-7.825 2.401-11.238 5.724-3.787 3.687-8.499 8.276-17.517 8.276s-13.73-4.589-17.517-8.276c-3.413-3.323-5.879-5.724-11.239-5.724s-7.826 2.401-11.238 5.724c-3.787 3.687-8.5 8.276-17.517 8.276s-13.73-4.589-17.517-8.276C985.287 11.401 982.821 9 977.462 9c-5.358 0-7.824 2.401-11.236 5.724C962.44 18.411 957.728 23 948.711 23c-9.017 0-13.729-4.589-17.515-8.276C927.784 11.401 925.319 9 919.961 9c-5.357 0-7.822 2.401-11.234 5.724C904.941 18.411 900.23 23 891.214 23c-9.017 0-13.729-4.589-17.516-8.276C870.286 11.401 867.82 9 862.461 9s-7.824 2.401-11.236 5.724C847.438 18.411 842.726 23 833.709 23c-9.017 0-13.729-4.589-17.515-8.276C812.782 11.401 810.317 9 804.958 9c-5.359 0-7.824 2.401-11.236 5.724-3.785 3.687-8.497 8.276-17.514 8.276s-13.729-4.589-17.516-8.276C755.28 11.401 752.815 9 747.457 9s-7.823 2.401-11.235 5.724C732.435 18.411 727.723 23 718.707 23c-9.018 0-13.729-4.589-17.516-8.276C697.779 11.401 695.314 9 689.955 9c-5.358 0-7.823 2.401-11.235 5.724-3.787 3.687-8.499 8.276-17.516 8.276-9.016 0-13.728-4.589-17.514-8.276C640.278 11.401 637.813 9 632.455 9c-5.357 0-7.822 2.401-11.234 5.724-3.785 3.687-8.496 8.276-17.513 8.276-9.016 0-13.728-4.589-17.514-8.276C582.783 11.401 580.318 9 574.96 9c-5.357 0-7.822 2.401-11.234 5.724-3.787 3.687-8.497 8.276-17.514 8.276-9.018 0-13.729-4.589-17.516-8.276C525.284 11.401 522.819 9 517.461 9c-5.357 0-7.822 2.401-11.234 5.724C502.44 18.411 497.729 23 488.713 23s-13.728-4.589-17.513-8.277C467.789 11.4 465.324 9 459.968 9c-5.357 0-7.822 2.401-11.234 5.724-3.786 3.687-8.498 8.276-17.513 8.276s-13.728-4.589-17.513-8.276C410.296 11.401 407.831 9 402.474 9c-5.356 0-7.821 2.401-11.232 5.723-3.786 3.688-8.497 8.277-17.513 8.277-9.017 0-13.729-4.589-17.515-8.276C352.802 11.401 350.337 9 344.979 9c-5.356 0-7.821 2.401-11.232 5.724-3.785 3.687-8.496 8.276-17.511 8.276-9.017 0-13.729-4.589-17.515-8.276C295.31 11.401 292.845 9 287.486 9s-7.823 2.401-11.235 5.724C272.465 18.411 267.753 23 258.737 23c-9.017 0-13.728-4.589-17.514-8.276C237.811 11.401 235.346 9 229.988 9s-7.823 2.401-11.235 5.724C214.967 18.411 210.256 23 201.239 23s-13.728-4.589-17.514-8.276C180.313 11.401 177.848 9 172.491 9s-7.822 2.401-11.234 5.724C157.471 18.411 152.76 23 143.743 23s-13.729-4.589-17.515-8.276C122.816 11.401 120.351 9 114.993 9c-5.357 0-7.822 2.401-11.234 5.724C99.973 18.412 95.262 23 86.245 23s-13.728-4.589-17.514-8.276C65.319 11.401 62.854 9 57.497 9s-7.822 2.401-11.234 5.724C42.477 18.412 37.765 23 28.748 23s-13.728-4.589-17.514-8.276C7.822 11.401 5.357 9 0 9V0z"/></svg>